<?xml version="1.0" encoding="UTF-8" standalone="no"?>
<!DOCTYPE svg PUBLIC "-//W3C//DTD SVG 1.1//EN"
 "http://www.w3.org/Graphics/SVG/1.1/DTD/svg11.dtd">
<!-- Generated by graphviz version 2.38.0 (20140413.2041)
 -->
<!-- Title: /mnt/home_data/Projects/min&#45;max_heap/mmheap.h Pages: 1 -->
<svg width="271pt" height="95pt"
 viewBox="0.00 0.00 270.50 95.00" xmlns="http://www.w3.org/2000/svg" xmlns:xlink="http://www.w3.org/1999/xlink">
<g id="graph0" class="graph" transform="scale(1 1) rotate(0) translate(4 91)">
<title>/mnt/home_data/Projects/min&#45;max_heap/mmheap.h</title>
<polygon fill="white" stroke="none" points="-4,4 -4,-91 266.5,-91 266.5,4 -4,4"/>
<!-- Node1 -->
<g id="node1" class="node"><title>Node1</title>
<polygon fill="#bfbfbf" stroke="black" points="65,-56.5 65,-86.5 197,-86.5 197,-56.5 65,-56.5"/>
<text text-anchor="start" x="73" y="-74.5" font-family="Helvetica,sans-Serif" font-size="10.00">/mnt/home_data/Projects</text>
<text text-anchor="middle" x="131" y="-63.5" font-family="Helvetica,sans-Serif" font-size="10.00">/min&#45;max_heap/mmheap.h</text>
</g>
<!-- Node2 -->
<g id="node2" class="node"><title>Node2</title>
<polygon fill="white" stroke="#bfbfbf" points="0,-0.5 0,-19.5 56,-19.5 56,-0.5 0,-0.5"/>
<text text-anchor="middle" x="28" y="-7.5" font-family="Helvetica,sans-Serif" font-size="10.00">algorithm</text>
</g>
<!-- Node1&#45;&gt;Node2 -->
<g id="edge1" class="edge"><title>Node1&#45;&gt;Node2</title>
<path fill="none" stroke="midnightblue" d="M106.59,-56.3993C90.0803,-46.8619 68.3773,-34.3248 51.9622,-24.8422"/>
<polygon fill="midnightblue" stroke="midnightblue" points="53.3972,-21.6292 42.9874,-19.6578 49.8957,-27.6906 53.3972,-21.6292"/>
</g>
<!-- Node3 -->
<g id="node3" class="node"><title>Node3</title>
<polygon fill="white" stroke="#bfbfbf" points="74,-0.5 74,-19.5 118,-19.5 118,-0.5 74,-0.5"/>
<text text-anchor="middle" x="96" y="-7.5" font-family="Helvetica,sans-Serif" font-size="10.00">cmath</text>
</g>
<!-- Node1&#45;&gt;Node3 -->
<g id="edge2" class="edge"><title>Node1&#45;&gt;Node3</title>
<path fill="none" stroke="midnightblue" d="M122.705,-56.3993C117.777,-48.0207 111.486,-37.3269 106.249,-28.4229"/>
<polygon fill="midnightblue" stroke="midnightblue" points="109.18,-26.5025 101.093,-19.6578 103.146,-30.0517 109.18,-26.5025"/>
</g>
<!-- Node4 -->
<g id="node4" class="node"><title>Node4</title>
<polygon fill="white" stroke="#bfbfbf" points="136.5,-0.5 136.5,-19.5 195.5,-19.5 195.5,-0.5 136.5,-0.5"/>
<text text-anchor="middle" x="166" y="-7.5" font-family="Helvetica,sans-Serif" font-size="10.00">stdexcept</text>
</g>
<!-- Node1&#45;&gt;Node4 -->
<g id="edge3" class="edge"><title>Node1&#45;&gt;Node4</title>
<path fill="none" stroke="midnightblue" d="M139.295,-56.3993C144.223,-48.0207 150.514,-37.3269 155.751,-28.4229"/>
<polygon fill="midnightblue" stroke="midnightblue" points="158.854,-30.0517 160.907,-19.6578 152.82,-26.5025 158.854,-30.0517"/>
</g>
<!-- Node5 -->
<g id="node5" class="node"><title>Node5</title>
<polygon fill="white" stroke="#bfbfbf" points="213.5,-0.5 213.5,-19.5 262.5,-19.5 262.5,-0.5 213.5,-0.5"/>
<text text-anchor="middle" x="238" y="-7.5" font-family="Helvetica,sans-Serif" font-size="10.00">cassert</text>
</g>
<!-- Node1&#45;&gt;Node5 -->
<g id="edge4" class="edge"><title>Node1&#45;&gt;Node5</title>
<path fill="none" stroke="midnightblue" d="M156.358,-56.3993C173.669,-46.7728 196.476,-34.0902 213.584,-24.5772"/>
<polygon fill="midnightblue" stroke="midnightblue" points="215.392,-27.5766 222.431,-19.6578 211.99,-21.4588 215.392,-27.5766"/>
</g>
</g>
</svg>
