<?xml version="1.0" encoding="UTF-8" standalone="no"?>
<!DOCTYPE svg PUBLIC "-//W3C//DTD SVG 1.1//EN"
 "http://www.w3.org/Graphics/SVG/1.1/DTD/svg11.dtd">
<!-- Generated by graphviz version 2.38.0 (20140413.2041)
 -->
<!-- Title: _mmheap::bubble_up Pages: 1 -->
<svg width="267pt" height="104pt"
 viewBox="0.00 0.00 267.00 104.00" xmlns="http://www.w3.org/2000/svg" xmlns:xlink="http://www.w3.org/1999/xlink">
<g id="graph0" class="graph" transform="scale(1 1) rotate(0) translate(4 100)">
<title>_mmheap::bubble_up</title>
<polygon fill="white" stroke="none" points="-4,4 -4,-100 263,-100 263,4 -4,4"/>
<!-- Node1 -->
<g id="node1" class="node"><title>Node1</title>
<polygon fill="#bfbfbf" stroke="black" points="0,-38.5 0,-57.5 110,-57.5 110,-38.5 0,-38.5"/>
<text text-anchor="middle" x="55" y="-45.5" font-family="Helvetica,sans-Serif" font-size="10.00">_mmheap::bubble_up</text>
</g>
<!-- Node2 -->
<g id="node2" class="node"><title>Node2</title>
<g id="a_node2"><a xlink:href="../../db/d41/namespace__mmheap.html#ad2d0424f48d073e88d974a8dc25f80eb" target="_top" xlink:title="_mmheap::has_parent">
<polygon fill="white" stroke="black" points="146,-76.5 146,-95.5 259,-95.5 259,-76.5 146,-76.5"/>
<text text-anchor="middle" x="202.5" y="-83.5" font-family="Helvetica,sans-Serif" font-size="10.00">_mmheap::has_parent</text>
</a>
</g>
</g>
<!-- Node1&#45;&gt;Node2 -->
<g id="edge1" class="edge"><title>Node1&#45;&gt;Node2</title>
<path fill="none" stroke="midnightblue" d="M92.7158,-57.589C111.657,-62.5358 134.957,-68.6211 155.129,-73.8892"/>
<polygon fill="midnightblue" stroke="midnightblue" points="154.488,-77.3394 165.048,-76.4799 156.257,-70.5665 154.488,-77.3394"/>
</g>
<!-- Node3 -->
<g id="node3" class="node"><title>Node3</title>
<g id="a_node3"><a xlink:href="../../db/d41/namespace__mmheap.html#a6a22e87485061e4e65c40ec62efb3a05" target="_top" xlink:title="_mmheap::min_level">
<polygon fill="white" stroke="black" points="149,-38.5 149,-57.5 256,-57.5 256,-38.5 149,-38.5"/>
<text text-anchor="middle" x="202.5" y="-45.5" font-family="Helvetica,sans-Serif" font-size="10.00">_mmheap::min_level</text>
</a>
</g>
</g>
<!-- Node1&#45;&gt;Node3 -->
<g id="edge2" class="edge"><title>Node1&#45;&gt;Node3</title>
<path fill="none" stroke="midnightblue" d="M110.179,-48C119.435,-48 129.121,-48 138.581,-48"/>
<polygon fill="midnightblue" stroke="midnightblue" points="138.727,-51.5001 148.727,-48 138.727,-44.5001 138.727,-51.5001"/>
</g>
<!-- Node4 -->
<g id="node4" class="node"><title>Node4</title>
<g id="a_node4"><a xlink:href="../../db/d41/namespace__mmheap.html#a2970d6beedec8a1bf8c4596a02768a4b" target="_top" xlink:title="_mmheap::parent">
<polygon fill="white" stroke="black" points="156.5,-0.5 156.5,-19.5 248.5,-19.5 248.5,-0.5 156.5,-0.5"/>
<text text-anchor="middle" x="202.5" y="-7.5" font-family="Helvetica,sans-Serif" font-size="10.00">_mmheap::parent</text>
</a>
</g>
</g>
<!-- Node1&#45;&gt;Node4 -->
<g id="edge3" class="edge"><title>Node1&#45;&gt;Node4</title>
<path fill="none" stroke="midnightblue" d="M92.7158,-38.411C111.657,-33.4642 134.957,-27.3789 155.129,-22.1108"/>
<polygon fill="midnightblue" stroke="midnightblue" points="156.257,-25.4335 165.048,-19.5201 154.488,-18.6606 156.257,-25.4335"/>
</g>
</g>
</svg>
