<?xml version="1.0" encoding="UTF-8" standalone="no"?>
<!DOCTYPE svg PUBLIC "-//W3C//DTD SVG 1.1//EN"
 "http://www.w3.org/Graphics/SVG/1.1/DTD/svg11.dtd">
<!-- Generated by graphviz version 2.38.0 (20140413.2041)
 -->
<!-- Title: _mmheap::has_gparent Pages: 1 -->
<svg width="443pt" height="28pt"
 viewBox="0.00 0.00 443.00 28.00" xmlns="http://www.w3.org/2000/svg" xmlns:xlink="http://www.w3.org/1999/xlink">
<g id="graph0" class="graph" transform="scale(1 1) rotate(0) translate(4 24)">
<title>_mmheap::has_gparent</title>
<polygon fill="white" stroke="none" points="-4,4 -4,-24 439,-24 439,4 -4,4"/>
<!-- Node1 -->
<g id="node1" class="node"><title>Node1</title>
<polygon fill="#bfbfbf" stroke="black" points="0,-0.5 0,-19.5 119,-19.5 119,-0.5 0,-0.5"/>
<text text-anchor="middle" x="59.5" y="-7.5" font-family="Helvetica,sans-Serif" font-size="10.00">_mmheap::has_gparent</text>
</g>
<!-- Node2 -->
<g id="node2" class="node"><title>Node2</title>
<g id="a_node2"><a xlink:href="../../db/d41/namespace__mmheap.html#acfc5052861de95d59821a5161c9331b6" target="_top" xlink:title="_mmheap::bubble_up_max">
<polygon fill="white" stroke="black" points="155,-0.5 155,-19.5 289,-19.5 289,-0.5 155,-0.5"/>
<text text-anchor="middle" x="222" y="-7.5" font-family="Helvetica,sans-Serif" font-size="10.00">_mmheap::bubble_up_max</text>
</a>
</g>
</g>
<!-- Node1&#45;&gt;Node2 -->
<g id="edge1" class="edge"><title>Node1&#45;&gt;Node2</title>
<path fill="none" stroke="midnightblue" d="M129.495,-10C137.9,-10 146.472,-10 154.834,-10"/>
<polygon fill="midnightblue" stroke="midnightblue" points="129.353,-6.5001 119.353,-10 129.353,-13.5001 129.353,-6.5001"/>
</g>
<!-- Node3 -->
<g id="node3" class="node"><title>Node3</title>
<g id="a_node3"><a xlink:href="../../db/d41/namespace__mmheap.html#a086b80079bae1a4a1f7c99ef1001ddd2" target="_top" xlink:title="_mmheap::bubble_up">
<polygon fill="white" stroke="black" points="325,-0.5 325,-19.5 435,-19.5 435,-0.5 325,-0.5"/>
<text text-anchor="middle" x="380" y="-7.5" font-family="Helvetica,sans-Serif" font-size="10.00">_mmheap::bubble_up</text>
</a>
</g>
</g>
<!-- Node2&#45;&gt;Node3 -->
<g id="edge2" class="edge"><title>Node2&#45;&gt;Node3</title>
<path fill="none" stroke="midnightblue" d="M299.171,-10C307.732,-10 316.324,-10 324.531,-10"/>
<polygon fill="midnightblue" stroke="midnightblue" points="299.158,-6.5001 289.158,-10 299.158,-13.5001 299.158,-6.5001"/>
</g>
</g>
</svg>
