<?xml version="1.0" encoding="UTF-8" standalone="no"?>
<!DOCTYPE svg PUBLIC "-//W3C//DTD SVG 1.1//EN"
 "http://www.w3.org/Graphics/SVG/1.1/DTD/svg11.dtd">
<!-- Generated by graphviz version 2.38.0 (20140413.2041)
 -->
<!-- Title: _mmheap::bubble_up_max Pages: 1 -->
<svg width="297pt" height="66pt"
 viewBox="0.00 0.00 297.00 66.00" xmlns="http://www.w3.org/2000/svg" xmlns:xlink="http://www.w3.org/1999/xlink">
<g id="graph0" class="graph" transform="scale(1 1) rotate(0) translate(4 62)">
<title>_mmheap::bubble_up_max</title>
<polygon fill="white" stroke="none" points="-4,4 -4,-62 293,-62 293,4 -4,4"/>
<!-- Node1 -->
<g id="node1" class="node"><title>Node1</title>
<polygon fill="#bfbfbf" stroke="black" points="0,-19.5 0,-38.5 134,-38.5 134,-19.5 0,-19.5"/>
<text text-anchor="middle" x="67" y="-26.5" font-family="Helvetica,sans-Serif" font-size="10.00">_mmheap::bubble_up_max</text>
</g>
<!-- Node2 -->
<g id="node2" class="node"><title>Node2</title>
<g id="a_node2"><a xlink:href="../../db/d41/namespace__mmheap.html#a39f6a9bd5fe68b3e4cdfe1ed0f370485" target="_top" xlink:title="_mmheap::gparent">
<polygon fill="white" stroke="black" points="180.5,-38.5 180.5,-57.5 278.5,-57.5 278.5,-38.5 180.5,-38.5"/>
<text text-anchor="middle" x="229.5" y="-45.5" font-family="Helvetica,sans-Serif" font-size="10.00">_mmheap::gparent</text>
</a>
</g>
</g>
<!-- Node1&#45;&gt;Node2 -->
<g id="edge1" class="edge"><title>Node1&#45;&gt;Node2</title>
<path fill="none" stroke="midnightblue" d="M134.208,-36.8377C146.096,-38.245 158.409,-39.7026 170.058,-41.0816"/>
<polygon fill="midnightblue" stroke="midnightblue" points="169.754,-44.57 180.096,-42.27 170.577,-37.6186 169.754,-44.57"/>
</g>
<!-- Node3 -->
<g id="node3" class="node"><title>Node3</title>
<g id="a_node3"><a xlink:href="../../db/d41/namespace__mmheap.html#ae6a28a83e624790c42205635d8018438" target="_top" xlink:title="_mmheap::has_gparent">
<polygon fill="white" stroke="black" points="170,-0.5 170,-19.5 289,-19.5 289,-0.5 170,-0.5"/>
<text text-anchor="middle" x="229.5" y="-7.5" font-family="Helvetica,sans-Serif" font-size="10.00">_mmheap::has_gparent</text>
</a>
</g>
</g>
<!-- Node1&#45;&gt;Node3 -->
<g id="edge2" class="edge"><title>Node1&#45;&gt;Node3</title>
<path fill="none" stroke="midnightblue" d="M134.208,-21.1623C142.619,-20.1667 151.241,-19.1459 159.691,-18.1456"/>
<polygon fill="midnightblue" stroke="midnightblue" points="160.368,-21.59 169.887,-16.9386 159.545,-14.6386 160.368,-21.59"/>
</g>
</g>
</svg>
