<?xml version="1.0" encoding="UTF-8" standalone="no"?>
<!DOCTYPE svg PUBLIC "-//W3C//DTD SVG 1.1//EN"
 "http://www.w3.org/Graphics/SVG/1.1/DTD/svg11.dtd">
<!-- Generated by graphviz version 2.38.0 (20140413.2041)
 -->
<!-- Title: _mmheap::bubble_up Pages: 1 -->
<svg width="443pt" height="199pt"
 viewBox="0.00 0.00 443.00 199.00" xmlns="http://www.w3.org/2000/svg" xmlns:xlink="http://www.w3.org/1999/xlink">
<g id="graph0" class="graph" transform="scale(1 1) rotate(0) translate(4 195)">
<title>_mmheap::bubble_up</title>
<polygon fill="white" stroke="none" points="-4,4 -4,-195 439,-195 439,4 -4,4"/>
<!-- Node1 -->
<g id="node1" class="node"><title>Node1</title>
<polygon fill="#bfbfbf" stroke="black" points="0,-76.5 0,-95.5 110,-95.5 110,-76.5 0,-76.5"/>
<text text-anchor="middle" x="55" y="-83.5" font-family="Helvetica,sans-Serif" font-size="10.00">_mmheap::bubble_up</text>
</g>
<!-- Node2 -->
<g id="node2" class="node"><title>Node2</title>
<g id="a_node2"><a xlink:href="../../db/d41/namespace__mmheap.html#acfc5052861de95d59821a5161c9331b6" target="_top" xlink:title="_mmheap::bubble_up_max">
<polygon fill="white" stroke="black" points="146,-152.5 146,-171.5 280,-171.5 280,-152.5 146,-152.5"/>
<text text-anchor="middle" x="213" y="-159.5" font-family="Helvetica,sans-Serif" font-size="10.00">_mmheap::bubble_up_max</text>
</a>
</g>
</g>
<!-- Node1&#45;&gt;Node2 -->
<g id="edge1" class="edge"><title>Node1&#45;&gt;Node2</title>
<path fill="none" stroke="midnightblue" d="M68.4624,-95.5228C85.2616,-107.967 116.479,-129.73 146,-143 151.098,-145.291 156.542,-147.381 162.034,-149.265"/>
<polygon fill="midnightblue" stroke="midnightblue" points="161.316,-152.711 171.908,-152.435 163.456,-146.046 161.316,-152.711"/>
</g>
<!-- Node5 -->
<g id="node5" class="node"><title>Node5</title>
<g id="a_node5"><a xlink:href="../../db/d41/namespace__mmheap.html#af2ef4f640c3c7c9b73f4774f00639644" target="_top" xlink:title="_mmheap::bubble_up_min">
<polygon fill="white" stroke="black" points="147.5,-114.5 147.5,-133.5 278.5,-133.5 278.5,-114.5 147.5,-114.5"/>
<text text-anchor="middle" x="213" y="-121.5" font-family="Helvetica,sans-Serif" font-size="10.00">_mmheap::bubble_up_min</text>
</a>
</g>
</g>
<!-- Node1&#45;&gt;Node5 -->
<g id="edge4" class="edge"><title>Node1&#45;&gt;Node5</title>
<path fill="none" stroke="midnightblue" d="M95.3654,-95.589C115.951,-100.604 141.34,-106.788 163.169,-112.105"/>
<polygon fill="midnightblue" stroke="midnightblue" points="162.373,-115.514 172.918,-114.48 164.03,-108.713 162.373,-115.514"/>
</g>
<!-- Node6 -->
<g id="node6" class="node"><title>Node6</title>
<g id="a_node6"><a xlink:href="../../db/d41/namespace__mmheap.html#ad2d0424f48d073e88d974a8dc25f80eb" target="_top" xlink:title="_mmheap::has_parent">
<polygon fill="white" stroke="black" points="156.5,-76.5 156.5,-95.5 269.5,-95.5 269.5,-76.5 156.5,-76.5"/>
<text text-anchor="middle" x="213" y="-83.5" font-family="Helvetica,sans-Serif" font-size="10.00">_mmheap::has_parent</text>
</a>
</g>
</g>
<!-- Node1&#45;&gt;Node6 -->
<g id="edge5" class="edge"><title>Node1&#45;&gt;Node6</title>
<path fill="none" stroke="midnightblue" d="M110.123,-86C121.811,-86 134.29,-86 146.364,-86"/>
<polygon fill="midnightblue" stroke="midnightblue" points="146.384,-89.5001 156.384,-86 146.384,-82.5001 146.384,-89.5001"/>
</g>
<!-- Node7 -->
<g id="node7" class="node"><title>Node7</title>
<g id="a_node7"><a xlink:href="../../db/d41/namespace__mmheap.html#a6a22e87485061e4e65c40ec62efb3a05" target="_top" xlink:title="_mmheap::min_level">
<polygon fill="white" stroke="black" points="159.5,-38.5 159.5,-57.5 266.5,-57.5 266.5,-38.5 159.5,-38.5"/>
<text text-anchor="middle" x="213" y="-45.5" font-family="Helvetica,sans-Serif" font-size="10.00">_mmheap::min_level</text>
</a>
</g>
</g>
<!-- Node1&#45;&gt;Node7 -->
<g id="edge6" class="edge"><title>Node1&#45;&gt;Node7</title>
<path fill="none" stroke="midnightblue" d="M95.3654,-76.411C115.951,-71.3965 141.34,-65.2119 163.169,-59.8947"/>
<polygon fill="midnightblue" stroke="midnightblue" points="164.03,-63.2874 172.918,-57.5201 162.373,-56.4863 164.03,-63.2874"/>
</g>
<!-- Node8 -->
<g id="node8" class="node"><title>Node8</title>
<g id="a_node8"><a xlink:href="../../db/d41/namespace__mmheap.html#a2970d6beedec8a1bf8c4596a02768a4b" target="_top" xlink:title="_mmheap::parent">
<polygon fill="white" stroke="black" points="167,-0.5 167,-19.5 259,-19.5 259,-0.5 167,-0.5"/>
<text text-anchor="middle" x="213" y="-7.5" font-family="Helvetica,sans-Serif" font-size="10.00">_mmheap::parent</text>
</a>
</g>
</g>
<!-- Node1&#45;&gt;Node8 -->
<g id="edge7" class="edge"><title>Node1&#45;&gt;Node8</title>
<path fill="none" stroke="midnightblue" d="M68.4624,-76.4772C85.2616,-64.0333 116.479,-42.2696 146,-29 151.098,-26.7085 156.542,-24.6192 162.034,-22.7348"/>
<polygon fill="midnightblue" stroke="midnightblue" points="163.456,-25.9542 171.908,-19.5648 161.316,-19.2892 163.456,-25.9542"/>
</g>
<!-- Node3 -->
<g id="node3" class="node"><title>Node3</title>
<g id="a_node3"><a xlink:href="../../db/d41/namespace__mmheap.html#ae6a28a83e624790c42205635d8018438" target="_top" xlink:title="_mmheap::has_gparent">
<polygon fill="white" stroke="black" points="316,-171.5 316,-190.5 435,-190.5 435,-171.5 316,-171.5"/>
<text text-anchor="middle" x="375.5" y="-178.5" font-family="Helvetica,sans-Serif" font-size="10.00">_mmheap::has_gparent</text>
</a>
</g>
</g>
<!-- Node2&#45;&gt;Node3 -->
<g id="edge2" class="edge"><title>Node2&#45;&gt;Node3</title>
<path fill="none" stroke="midnightblue" d="M280.208,-169.838C288.619,-170.833 297.241,-171.854 305.691,-172.854"/>
<polygon fill="midnightblue" stroke="midnightblue" points="305.545,-176.361 315.887,-174.061 306.368,-169.41 305.545,-176.361"/>
</g>
<!-- Node4 -->
<g id="node4" class="node"><title>Node4</title>
<g id="a_node4"><a xlink:href="../../db/d41/namespace__mmheap.html#a39f6a9bd5fe68b3e4cdfe1ed0f370485" target="_top" xlink:title="_mmheap::gparent">
<polygon fill="white" stroke="black" points="326.5,-133.5 326.5,-152.5 424.5,-152.5 424.5,-133.5 326.5,-133.5"/>
<text text-anchor="middle" x="375.5" y="-140.5" font-family="Helvetica,sans-Serif" font-size="10.00">_mmheap::gparent</text>
</a>
</g>
</g>
<!-- Node2&#45;&gt;Node4 -->
<g id="edge3" class="edge"><title>Node2&#45;&gt;Node4</title>
<path fill="none" stroke="midnightblue" d="M280.208,-154.162C292.096,-152.755 304.409,-151.297 316.058,-149.918"/>
<polygon fill="midnightblue" stroke="midnightblue" points="316.577,-153.381 326.096,-148.73 315.754,-146.43 316.577,-153.381"/>
</g>
</g>
</svg>
