<?xml version="1.0" encoding="UTF-8" standalone="no"?>
<!DOCTYPE svg PUBLIC "-//W3C//DTD SVG 1.1//EN"
 "http://www.w3.org/Graphics/SVG/1.1/DTD/svg11.dtd">
<!-- Generated by graphviz version 2.38.0 (20140413.2041)
 -->
<!-- Title: _mmheap::gparent Pages: 1 -->
<svg width="422pt" height="28pt"
 viewBox="0.00 0.00 422.00 28.00" xmlns="http://www.w3.org/2000/svg" xmlns:xlink="http://www.w3.org/1999/xlink">
<g id="graph0" class="graph" transform="scale(1 1) rotate(0) translate(4 24)">
<title>_mmheap::gparent</title>
<polygon fill="white" stroke="none" points="-4,4 -4,-24 418,-24 418,4 -4,4"/>
<!-- Node1 -->
<g id="node1" class="node"><title>Node1</title>
<polygon fill="#bfbfbf" stroke="black" points="0,-0.5 0,-19.5 98,-19.5 98,-0.5 0,-0.5"/>
<text text-anchor="middle" x="49" y="-7.5" font-family="Helvetica,sans-Serif" font-size="10.00">_mmheap::gparent</text>
</g>
<!-- Node2 -->
<g id="node2" class="node"><title>Node2</title>
<g id="a_node2"><a xlink:href="../../db/d41/namespace__mmheap.html#acfc5052861de95d59821a5161c9331b6" target="_top" xlink:title="_mmheap::bubble_up_max">
<polygon fill="white" stroke="black" points="134,-0.5 134,-19.5 268,-19.5 268,-0.5 134,-0.5"/>
<text text-anchor="middle" x="201" y="-7.5" font-family="Helvetica,sans-Serif" font-size="10.00">_mmheap::bubble_up_max</text>
</a>
</g>
</g>
<!-- Node1&#45;&gt;Node2 -->
<g id="edge1" class="edge"><title>Node1&#45;&gt;Node2</title>
<path fill="none" stroke="midnightblue" d="M108.294,-10C116.641,-10 125.278,-10 133.764,-10"/>
<polygon fill="midnightblue" stroke="midnightblue" points="108.287,-6.5001 98.2866,-10 108.287,-13.5001 108.287,-6.5001"/>
</g>
<!-- Node3 -->
<g id="node3" class="node"><title>Node3</title>
<g id="a_node3"><a xlink:href="../../db/d41/namespace__mmheap.html#a086b80079bae1a4a1f7c99ef1001ddd2" target="_top" xlink:title="_mmheap::bubble_up">
<polygon fill="white" stroke="black" points="304,-0.5 304,-19.5 414,-19.5 414,-0.5 304,-0.5"/>
<text text-anchor="middle" x="359" y="-7.5" font-family="Helvetica,sans-Serif" font-size="10.00">_mmheap::bubble_up</text>
</a>
</g>
</g>
<!-- Node2&#45;&gt;Node3 -->
<g id="edge2" class="edge"><title>Node2&#45;&gt;Node3</title>
<path fill="none" stroke="midnightblue" d="M278.171,-10C286.732,-10 295.324,-10 303.531,-10"/>
<polygon fill="midnightblue" stroke="midnightblue" points="278.158,-6.5001 268.158,-10 278.158,-13.5001 278.158,-6.5001"/>
</g>
</g>
</svg>
